<?xml version="1.0" encoding="UTF-8"?>
<svg width="237px" height="252px" viewBox="0 0 237 252" version="1.1" xmlns="http://www.w3.org/2000/svg" xmlns:xlink="http://www.w3.org/1999/xlink">
    <title>Group</title>
    <g id="Page-1" stroke="none" stroke-width="1" fill="none" fill-rule="evenodd">
        <g id="Group" transform="translate(0.341860, 0.327336)">
            <path d="M86.8531158,35.0807885 L58.7834368,8.2708534 L147.122404,25.994943 L193.716779,71.9179162 L190.285938,76.6984829 L159.560645,71.9179162 L147.760365,91.4033946 L139.30815,88.6642155 C142.12374,80.3139974 142.771408,74.2074054 141.251153,70.3444394 C141.726924,72.1999465 138.342076,56.8609767 126.250108,64.3894464 C123.203419,59.5350486 112.979156,50.3589433 104.006365,74.190253 L69.5420192,76.6984829 L86.8531158,35.0807885 Z" id="Path" fill="#303030"></path>
            <path d="M139.476266,251.080729 C127.409488,236.113003 122.294373,215.325689 124.130923,188.71879 C94.6276894,179.351463 78.610945,158.642596 76.0806901,126.592187 C67.8423647,92.5683341 60.2477546,87.7270104 53.2968597,112.068217 C49.6345272,137.419987 44.8231975,147.476404 38.8628706,142.237469 C14.4509096,120.454204 1.49661941,91.1240122 0,54.2468927 C5.83727557,7.03802707 14.5308933,-9.35787099 26.0808533,5.05919852 C45.0523817,52.5480072 58.4919576,77.4890914 66.399581,79.8824511 C78.8493581,80.3885021 88.1090144,80.2723719 94.1785499,79.5340604 C101.438187,78.4271164 105.068006,77.8736445 105.068006,77.8736445 C111.23487,64.626583 116.424797,60.27336 120.637787,64.8139755 C126.957272,71.6248988 123.237293,71.716483 125.317771,71.5198576 C131.129943,64.8720904 134.930988,64.222114 136.720905,69.5699283 C139.40578,77.5916498 138.577992,83.0104594 136.720905,87.164643 C134.863817,91.3188265 145.935587,94.2925959 145.935587,94.2925959 C181.151644,97.4123949 198.759673,98.9722944 198.759673,98.9722944 C205.105939,100.33924 208.520188,97.6171865 209.002419,90.806134 C209.550693,82.8000943 211.823536,80.293612 215.820948,83.2866871 C215.018475,90.464086 214.617239,94.0527855 214.617239,94.0527855 C222.255686,87.2716388 227.834992,85.3483202 231.355157,88.2828296 C232.710888,91.2023862 229.310346,94.5418704 221.153531,98.3012824 C233.480963,97.8402342 238.411064,99.2950281 235.943833,102.665664 C216.463924,103.580284 208.654764,106.914784 212.516354,112.669164 C210.729481,118.926959 208.634204,120.854639 206.230523,118.452204 C207.517719,109.722194 203.498501,106.033185 194.172866,107.385178 C162.659599,107.686728 153.859809,111.37013 167.773496,118.435382 C193.460111,129.802089 198.54784,146.143755 183.036683,167.460381 C188.060862,166.995595 190.572952,166.763202 190.572952,166.763202 C184.964363,210.85187 174.44748,238.415699 159.022302,249.454688 C154.292197,240.438081 151.291646,233.404603 150.020648,228.354256 L141.727388,248.071543 C141.727388,248.99364 140.977014,249.996702 139.476266,251.080729 Z" id="Path-2" fill="#000000"></path>
        </g>
    </g>
</svg>